<svg width="32" height="32" viewBox="0 0 32 32" fill="none" xmlns="http://www.w3.org/2000/svg">
<circle cx="16" cy="16" r="16" fill="white"/>
<path d="M23.6381 20.51L19.714 14.1987V9.14286H19.9818C20.4271 9.14286 20.7854 8.7846 20.7854 8.33929V7.80357C20.7854 7.35826 20.4271 7 19.9818 7H13.0175C12.5722 7 12.214 7.35826 12.214 7.80357V8.33929C12.214 8.7846 12.5722 9.14286 13.0175 9.14286H13.2854V14.1987L9.36129 20.51C8.38027 22.0871 9.51196 24.1429 11.3736 24.1429H21.6258C23.4908 24.1429 24.6191 22.0837 23.6381 20.51V20.51ZM13.6169 17.7143L15.2307 15.1161C15.3546 14.942 15.4249 14.7277 15.4249 14.5V9.14286H17.5678V14.5C17.5678 14.731 17.6414 14.942 17.762 15.1161L19.3758 17.7143H13.6169V17.7143Z" fill="#0072CE"/>
</svg>
